<?xml version="1.0" standalone="no"?>
<!DOCTYPE svg PUBLIC "-//W3C//DTD SVG 20010904//EN"
 "http://www.w3.org/TR/2001/REC-SVG-20010904/DTD/svg10.dtd">
<svg version="1.0" xmlns="http://www.w3.org/2000/svg"
 width="800.000000pt" height="800.000000pt" viewBox="0 0 800.000000 800.000000"
 preserveAspectRatio="xMidYMid meet">

<g transform="translate(0.000000,800.000000) scale(0.100000,-0.100000)"
fill="#000000" stroke="none">
<path d="M3701 7990 c-811 -64 -1572 -365 -2211 -876 -173 -138 -466 -431
-604 -604 -766 -959 -1053 -2185 -790 -3380 130 -590 402 -1154 790 -1640 139
-174 431 -466 604 -604 758 -604 1668 -911 2620 -882 888 26 1704 326 2400
882 173 138 466 431 604 604 761 952 1048 2162 795 3354 -126 598 -400 1172
-795 1666 -138 173 -431 466 -604 604 -603 482 -1291 769 -2065 861 -155 19
-584 27 -744 15z m486 -1661 c23 -11 57 -37 75 -57 26 -29 204 -449 847 -1997
922 -2218 854 -2033 791 -2161 -82 -168 -288 -208 -447 -87 -20 15 -500 403
-1067 860 l-1030 833 -347 -868 -346 -867 -297 -1 c-163 0 -296 4 -296 8 0 11
1736 4180 1759 4227 63 121 227 171 358 110z"/>
<path d="M3801 4834 c-144 -361 -258 -660 -254 -664 14 -14 1529 -1207 1541
-1214 6 -3 -54 152 -132 346 -79 194 -308 763 -511 1263 -202 501 -371 913
-374 918 -4 4 -125 -288 -270 -649z"/>
</g>
</svg>
