<svg version="1.2" xmlns="http://www.w3.org/2000/svg" viewBox="0 0 119 119" width="119" height="119">
	<title>KubeLinter-horizontal</title>
	<defs>
		<clipPath clipPathUnits="userSpaceOnUse" id="cp1">
			<path d="m64.7 2.6l35.6 17.1c3.4 1.7 5.8 4.8 6.7 8.4l8.8 38.6c0.8 3.6 0 7.5-2.4 10.4l-24.7 31c-2.3 2.9-5.9 4.6-9.6 4.6h-39.6c-3.7 0-7.3-1.7-9.7-4.7l-24.6-30.9c-2.3-2.9-3.2-6.8-2.4-10.4l8.8-38.7c0.8-3.6 3.3-6.7 6.7-8.4l35.6-17c3.4-1.6 7.4-1.6 10.8 0z"/>
		</clipPath>
		<linearGradient id="g1" x2="1" gradientUnits="userSpaceOnUse" gradientTransform="matrix(40.033,69.423,-31.748,18.307,55.142,.004)">
			<stop offset="0" stop-color="#70a1ff"/>
			<stop offset="1" stop-color="#645bff"/>
		</linearGradient>
		<linearGradient id="g2" x2="1" gradientUnits="userSpaceOnUse" gradientTransform="matrix(0,78.881,-39.222,0,94.702,15.423)">
			<stop offset="0" stop-color="#c8b9ff"/>
			<stop offset="1" stop-color="#83a4ff"/>
		</linearGradient>
		<linearGradient id="g3" x2="1" gradientUnits="userSpaceOnUse" gradientTransform="matrix(-22.929,16.571,-7.953,-11.005,93.462,73.648)">
			<stop offset="0" stop-color="#9852ff"/>
			<stop offset="1" stop-color="#2a58d6"/>
		</linearGradient>
		<linearGradient id="g4" x2="1" gradientUnits="userSpaceOnUse" gradientTransform="matrix(0,45.013,-74.119,0,57.198,69.376)">
			<stop offset="0" stop-color="#c8b9ff"/>
			<stop offset="1" stop-color="#83a4ff"/>
		</linearGradient>
		<linearGradient id="g5" x2="1" gradientUnits="userSpaceOnUse" gradientTransform="matrix(9.471,76.96,-33.382,4.108,23.493,36.801)">
			<stop offset="0" stop-color="#70a1ff"/>
			<stop offset="1" stop-color="#645bff"/>
		</linearGradient>
		<linearGradient id="g6" x2="1" gradientUnits="userSpaceOnUse" gradientTransform="matrix(-15.173,64.468,-42.002,-9.886,38.97,17.761)">
			<stop offset="0" stop-color="#9852ff"/>
			<stop offset="1" stop-color="#2a58d6"/>
		</linearGradient>
		<linearGradient id="g7" x2="1" gradientUnits="userSpaceOnUse" gradientTransform="matrix(0,32.045,-78.49,0,48.743,6.058)">
			<stop offset="0" stop-color="#c8b9ff"/>
			<stop offset="1" stop-color="#83a4ff"/>
		</linearGradient>
		<linearGradient id="g8" x2="1" gradientUnits="userSpaceOnUse" gradientTransform="matrix(42.251,61.67,-61.067,41.838,39.05,23.7)">
			<stop offset="0" stop-color="#f1fcff"/>
			<stop offset="1" stop-color="#b5d4ff"/>
		</linearGradient>
		<clipPath clipPathUnits="userSpaceOnUse" id="cp2">
			<path d="m59 23.7l29 14 7 31.3-20 25.1h-32.1l-20-25.1 7-31.4z"/>
		</clipPath>
		<linearGradient id="g9" x2="1" gradientUnits="userSpaceOnUse" gradientTransform="matrix(53.937,11.809,-11.581,52.895,37.885,57.594)">
			<stop offset="0" stop-color="#591d7d"/>
			<stop offset="1" stop-color="#404cf8"/>
		</linearGradient>
	</defs>
	<style>
		.s0 { fill: url(#g1) } 
		.s1 { fill: url(#g2) } 
		.s2 { fill: url(#g3) } 
		.s3 { fill: url(#g4) } 
		.s4 { fill: url(#g5) } 
		.s5 { fill: url(#g6) } 
		.s6 { fill: url(#g7) } 
		.s7 { fill: url(#g8) } 
		.s8 { fill: url(#g9) } 
		.s9 { fill: #293a68 } 
	</style>
	<g>
		<g id="Clip-Path" clip-path="url(#cp1)">
			<g>
				<path fill-rule="evenodd" class="s0" d="m59.7 0l34 15.4 10.2 42.8-9 11.2-9.7-42.2q-0.1-0.5-0.3-1-0.3-0.5-0.6-0.9-0.4-0.4-0.8-0.7-0.4-0.4-0.9-0.6l-36.2-18 13.2-6z"/>
				<path fill-rule="evenodd" class="s1" d="m102.9 56.5l-9.2-41.1 15.8 4.2 4.8 39.8-26.3 34.9h-12.9l26.9-33.7c0.9-1.1 1.2-2.6 1-4z"/>
				<path fill-rule="evenodd" class="s2" d="m117.4 72.3l-24.9 32.2-42.3 0.1-8-10.5 43.4 0.1c1.5 0 3-0.7 3.9-2l24.8-32.9 3 13z"/>
				<path fill-rule="evenodd" class="s3" d="m53.1 104l41.2 0.1-10.4 10.3-39-0.5-0.6-2.1-24.2-31.1 2.9-11.3 26.3 32.8c1 1.2 2.3 1.8 3.8 1.8z"/>
				<path fill-rule="evenodd" class="s4" d="m21.8 82.5l25.5 31.3-15-0.1-23.2-31.6 9.6-39.6 11.5-5.7-9.5 41.6c-0.3 1.4 0 3 1 4.1z"/>
				<path fill-rule="evenodd" class="s5" d="m0.3 72.4l9.1-37.4 37.9-17.2 12.2 6-38.4 18.3q-0.5 0.2-0.9 0.5-0.4 0.4-0.8 0.8-0.3 0.4-0.6 0.9-0.2 0.4-0.3 1l-9.3 36.9-2.3-0.7-6.5-9.1z"/>
				<path fill-rule="evenodd" class="s6" d="m46.4 6.1l36.3 18c1.3 0.6 2.2 1.8 2.6 3.2l2.7 10.8-38.7-19.1q-0.5-0.3-1.1-0.4-0.5-0.1-1-0.2-0.6 0-1.1 0.1-0.5 0.1-1 0.4l-35.6 16.1 2.4-13 34.6-15.8z"/>
			</g>
		</g>
		<path id="j" fill-rule="evenodd" class="s7" d="m59 23.7l29 14 7 31.3-20 25.1h-32.1l-20-25.1 7-31.4z"/>
		<g id="Clip-Path" clip-path="url(#cp2)">
			<path fill-rule="evenodd" class="s8" d="m71 43.6l-16 26q-0.1 0.2-0.4 0.4-0.2 0.1-0.4 0.2-0.3 0-0.6-0.1-0.2-0.1-0.4-0.3l-7-7.4c-0.2-0.3-0.5-0.4-0.8-0.4h-13q-0.4 0-0.7 0.1-0.3 0.2-0.5 0.5-0.1 0.3 0 0.7 0 0.4 0.3 0.6l15.9 19.7c0.2 0.2 0.5 0.4 0.9 0.4h12.6c0.4 0 0.8-0.2 1-0.6l23-38.7q0.2-0.3 0.2-0.6 0-0.3-0.2-0.6-0.1-0.2-0.4-0.4-0.3-0.1-0.6-0.1h-11.9c-0.3 0-0.7 0.2-1 0.6z"/>
		</g>
		<path class="s9" d="m154.2 54h0.2l19.5-19.2h8.5l-21.3 20 22.6 23.8h-8.8l-20.5-22.7h-0.2v22.7h-6v-43.8h6zm52.4 24.6q-0.1-0.6-0.1-1.2-0.1-0.6-0.1-1.2 0-0.7 0-1.3 0-0.6 0-1.2h-0.2c-0.7 1.6-2 3-3.7 4q-1.2 0.7-2.6 1.1-1.3 0.4-2.7 0.5-1.4 0.1-2.8-0.1-1.4-0.2-2.7-0.8-0.5-0.2-1-0.5-0.4-0.2-0.8-0.5-0.5-0.4-0.9-0.7-0.4-0.4-0.7-0.8-0.3-0.4-0.6-0.9-0.3-0.4-0.6-0.9-0.2-0.5-0.4-1-0.2-0.5-0.4-1-0.2-0.6-0.3-1.2-0.1-0.5-0.2-1.1-0.1-0.6-0.1-1.2 0-0.6 0-1.2v-18.1h5.8v16.2c0 1.2 0.1 2.3 0.3 3.4 0.2 1 0.5 2 1 2.9 0.5 0.8 1.2 1.5 2 2 1 0.4 2 0.7 3.4 0.7q0.8 0 1.6-0.1 0.8-0.2 1.6-0.5 0.7-0.4 1.3-0.9 0.7-0.5 1.2-1.1c1.4-1.8 2.1-4.1 2.1-7v-15.7h5.9v23q0 0.8 0 1.6 0 0.8 0 1.6 0.1 0.7 0.1 1.5 0 0.8 0.1 1.6h-5.5zm20.3-4.7v4.7h-5.6v-46.8h5.8v21.8h0.2q0.9-1.2 2-2.2 1.2-1 2.5-1.7 1.4-0.7 2.9-1 1.5-0.3 3-0.3 3.3 0 6 1.2 1.3 0.6 2.5 1.4 1.2 0.8 2.2 1.9 1 1 1.8 2.3 0.7 1.2 1.2 2.6 0.5 1.4 0.8 3 0.3 1.5 0.3 3 0 1.5-0.3 3-0.3 1.6-0.8 3-0.5 1.4-1.2 2.6-0.7 1.3-1.7 2.4-1 1-2.2 1.9-1.2 0.8-2.5 1.4-1.4 0.6-3 0.9-1.5 0.4-3.1 0.3-1.6 0-3.1-0.3-1.6-0.3-3-1c-1.9-1-3.4-2.3-4.6-4zm19.5-10c0-1.4-0.2-2.7-0.6-4-0.4-1.3-1-2.4-1.9-3.4q-1.2-1.5-3-2.4-0.5-0.2-1-0.4-0.6-0.1-1.1-0.2-0.5-0.1-1.1-0.2-0.5 0-1.1 0-1 0-2 0.2-1 0.2-1.9 0.6-0.9 0.4-1.7 1-0.8 0.6-1.5 1.4c-1 1-1.6 2.1-2 3.4q-0.5 1.4-0.7 2.9-0.1 1.6 0.2 3.1 0.2 1.5 0.9 2.9 0.6 1.3 1.6 2.5c0.8 1 1.9 1.7 3 2.3 1.3 0.6 2.7 0.9 4.1 0.9 1.6 0 3-0.3 4.3-1q0.4-0.2 0.8-0.5 0.4-0.2 0.8-0.5 0.4-0.3 0.7-0.6 0.4-0.3 0.7-0.7c0.9-1 1.5-2.1 1.9-3.4 0.4-1.3 0.6-2.6 0.6-4zm40.7-0.2v2h-23.3q0 0.9 0.2 1.8 0.2 0.8 0.6 1.6 0.4 0.9 0.9 1.6 0.5 0.7 1.2 1.3 0.7 0.6 1.4 1.1 0.8 0.5 1.7 0.8 0.8 0.4 1.7 0.5 0.9 0.2 1.8 0.2c2 0 3.7-0.5 5.1-1.3 1.5-1 2.6-2 3.4-3.2l4.1 3.3c-1.6 2-3.4 3.6-5.5 4.5-2.2 1-4.5 1.5-7.1 1.5-2.2 0-4.3-0.4-6.2-1.1q-1.4-0.5-2.6-1.3-1.2-0.8-2.3-1.9-1-1-1.8-2.2-0.9-1.2-1.4-2.6c-0.8-2-1.2-4-1.2-6.3q0-3.5 1.2-6.3 0.5-1.4 1.3-2.6 0.8-1.2 1.9-2.3 1-1 2.2-1.8 1.2-0.8 2.6-1.4 2.7-1.2 6-1.2c2.1 0 4 0.4 5.8 1.1q0.6 0.2 1.2 0.6 0.7 0.3 1.2 0.6 0.6 0.4 1.1 0.9 0.5 0.4 1 0.9c1.2 1.3 2.1 3 2.8 4.8 0.6 1.9 1 4 1 6.4zm-5.9-2.4q0-0.4-0.1-0.8 0-0.4-0.1-0.8-0.1-0.4-0.2-0.8-0.1-0.4-0.2-0.8c-0.3-1-0.9-2-1.5-2.7q-0.3-0.3-0.6-0.5-0.3-0.3-0.6-0.5-0.3-0.2-0.7-0.4-0.3-0.2-0.7-0.3-0.4-0.2-0.8-0.3-0.5-0.1-0.9-0.2-0.5-0.1-0.9-0.2-0.5 0-0.9 0-0.9 0-1.7 0.1-0.9 0.2-1.7 0.5-0.8 0.3-1.6 0.8-0.7 0.4-1.4 1c-0.8 0.8-1.4 1.7-2 2.7-0.5 1-0.8 2-0.8 3.2zm19.6 11.8h19.6v5.5h-25.7v-43.8h6.1v38.2zm30.3 5.5h-5.8v-29.3h5.8zm1-40c0 1.1-0.4 2-1.1 2.7q-0.3 0.3-0.6 0.4-0.3 0.2-0.7 0.4-0.4 0.1-0.7 0.2-0.4 0-0.8 0-0.7 0-1.4-0.3-0.7-0.2-1.2-0.7-0.5-0.5-0.9-1.2-0.3-0.7-0.3-1.4c0-1.1 0.3-2 1-2.7 0.8-0.7 1.7-1.1 2.8-1.1 1 0 2 0.4 2.8 1 0.7 0.8 1.1 1.7 1.1 2.8zm13.6 10.7q0.1 0.6 0.1 1.2 0.1 0.6 0.1 1.2 0.1 0.6 0.1 1.2 0 0.6 0 1.2h0.2c0.3-0.8 0.8-1.5 1.5-2.2q0.8-0.8 1.7-1.5 0.9-0.6 1.9-1.1 1.1-0.4 2.2-0.7 1.1-0.2 2.2-0.2c1.9 0 3.5 0.4 4.9 1q1 0.4 1.8 1.1 0.9 0.6 1.6 1.5 0.7 0.8 1.2 1.7 0.5 1 0.8 2c0.4 1.5 0.6 3 0.6 4.7v18.2h-5.8v-16.3c0-1.2 0-2.3-0.2-3.4-0.2-1-0.6-2-1-2.8q-0.2-0.3-0.4-0.6-0.2-0.3-0.5-0.5-0.3-0.3-0.6-0.5-0.3-0.2-0.6-0.4c-0.9-0.5-2-0.8-3.3-0.8q-0.8 0-1.6 0.1-0.8 0.2-1.6 0.6-0.7 0.3-1.4 0.8-0.6 0.6-1.1 1.2c-1.5 1.7-2.2 4-2.2 7v15.6h-5.8v-23q0-0.8 0-1.6-0.1-0.8-0.1-1.6 0-0.7-0.1-1.5 0-0.8-0.1-1.6zm44.4 4.7h-7.8v15.3c0 1.8 0.3 3 1 3.8 0.6 0.8 1.7 1.1 3.1 1.1q0.4 0 0.9 0 0.4-0.1 0.8-0.2 0.5-0.1 0.9-0.2 0.4-0.1 0.8-0.3l0.2 4.8q-0.6 0.2-1.2 0.4-0.6 0.1-1.3 0.2-0.6 0.1-1.2 0.2-0.7 0-1.3 0c-2.7 0-4.8-0.8-6.3-2.3-1.5-1.5-2.2-3.8-2.2-6.9v-15.9h-5.5v-4.7h5.6v-8.5h5.8v8.5h7.8v4.7zm32.6 9.7v1l-0.1 1h-23.3q0 0.9 0.2 1.8 0.3 0.8 0.6 1.7 0.4 0.8 1 1.5 0.5 0.7 1.2 1.3 0.7 0.6 1.4 1.1 0.8 0.5 1.6 0.8 0.8 0.3 1.7 0.5 0.9 0.2 1.8 0.2c2 0 3.7-0.5 5.2-1.3 1.4-1 2.5-2 3.4-3.2l4 3.3c-1.5 2-3.4 3.6-5.5 4.5-2.1 1-4.5 1.5-7 1.5-2.3 0-4.4-0.4-6.3-1.1q-1.4-0.5-2.6-1.3-1.2-0.8-2.2-1.9-1.1-1-1.9-2.2-0.8-1.2-1.3-2.6c-0.8-2-1.2-4-1.2-6.3 0-2.3 0.3-4.4 1.1-6.3q0.5-1.4 1.3-2.6 0.8-1.2 1.9-2.3 1-1 2.2-1.8 1.2-0.8 2.6-1.4 2.8-1.2 6-1.2c2.2 0 4.1 0.4 5.9 1.1q0.6 0.2 1.2 0.6 0.6 0.3 1.2 0.7 0.5 0.3 1 0.8 0.5 0.4 1 0.9c1.2 1.3 2.2 3 2.8 4.8 0.7 1.9 1 4 1 6.4zm-6-2.4q0-0.4 0-0.8-0.1-0.4-0.1-0.8-0.1-0.4-0.2-0.8-0.1-0.4-0.2-0.8c-0.4-1-1-2-1.6-2.7q-0.3-0.3-0.6-0.5-0.2-0.3-0.6-0.5-0.3-0.2-0.6-0.4-0.3-0.2-0.7-0.3-0.4-0.2-0.9-0.3-0.4-0.1-0.9-0.2-0.4-0.1-0.9-0.2-0.4 0-0.9 0-0.9 0-1.7 0.2-0.9 0.1-1.7 0.4-0.8 0.3-1.5 0.8-0.8 0.4-1.4 1c-0.8 0.8-1.5 1.7-2 2.7-0.5 1-0.8 2-0.9 3.2zm13.2-5.7q0-0.8 0-1.6 0-0.8 0-1.6-0.1-0.7-0.1-1.5 0-0.8-0.1-1.6h5.5q0.1 0.6 0.1 1.2 0.1 0.6 0.1 1.2 0.1 0.7 0.1 1.3 0 0.6 0 1.2h0.1c0.9-1.7 2-3.1 3.7-4.2 1.5-1 3.3-1.6 5.3-1.6 1 0 1.7 0.1 2.3 0.3l-0.2 5.4q-0.3-0.1-0.7-0.1-0.3-0.1-0.6-0.1-0.4-0.1-0.7-0.1-0.4 0-0.7 0-0.9 0-1.8 0.1-0.8 0.2-1.6 0.6-0.8 0.3-1.5 0.9-0.7 0.5-1.3 1.2-1.1 1.4-1.5 3c-0.4 1.1-0.5 2.3-0.5 3.6v15.4h-5.9z"/>
	</g>
</svg>