<?xml version="1.0" standalone="no"?>
<!DOCTYPE svg PUBLIC "-//W3C//DTD SVG 20010904//EN"
 "http://www.w3.org/TR/2001/REC-SVG-20010904/DTD/svg10.dtd">
<svg version="1.0" xmlns="http://www.w3.org/2000/svg"
 width="1501.000000pt" height="1501.000000pt" viewBox="0 0 1501.000000 1501.000000"
 preserveAspectRatio="xMidYMid meet">

<rect width="100%" height="100%" rx="75" ry="75" fill="lightblue" />
<g transform="translate(0.000000,1501.000000) scale(0.100000,-0.100000)"
fill="#000000" stroke="none">
<path d="M1735 13353 c-91 -8 -261 -46 -356 -79 -513 -179 -881 -603 -995
-1149 -18 -87 -19 -225 -19 -4625 l0 -4535 23 -102 c134 -607 580 -1050 1192
-1185 l105 -23 5810 0 c5623 0 5813 1 5910 19 476 88 875 387 1089 815 90 178
140 362 156 575 13 163 13 8719 0 8882 -30 382 -174 699 -440 964 -255 255
-558 401 -912 440 -67 7 -1886 9 -5810 8 -3142 -1 -5731 -3 -5753 -5z m820
-2243 c127 -40 202 -86 306 -190 104 -104 151 -179 188 -305 11 -38 46 -243
77 -455 31 -212 57 -385 57 -386 1 0 974 -195 2162 -432 l2160 -432 2160 431
c1188 237 2162 433 2164 435 2 2 30 180 62 396 32 216 65 418 74 448 34 112
94 210 185 300 47 47 111 100 143 119 158 93 364 124 539 82 334 -80 568 -370
568 -705 0 -94 -176 -1331 -206 -1449 -56 -220 -225 -409 -444 -498 -33 -13
-673 -146 -1585 -328 l-1530 -306 -117 -640 c-190 -1040 -356 -1972 -373
-2090 -76 -534 -479 -1000 -1010 -1169 -182 -57 -219 -61 -630 -61 -361 0
-385 1 -484 23 -296 66 -541 202 -750 413 -242 244 -382 550 -420 914 -12 110
-414 2592 -421 2598 -3 2 -707 144 -1565 315 -1554 311 -1560 312 -1650 355
-187 91 -322 244 -384 437 -25 76 -221 1393 -221 1482 0 289 194 569 470 678
98 39 167 50 290 46 82 -3 135 -10 185 -26z"/>
<path d="M7825 7474 c-285 -59 -335 -60 -618 -4 -120 23 -221 40 -224 36 -4
-3 68 -469 160 -1034 92 -565 170 -1051 174 -1079 l6 -53 188 0 189 0 0 43 c0
32 228 1307 376 2105 8 41 14 42 -251 -14z"/>
</g>
</svg>
