<?xml version="1.0" standalone="no"?>
<!DOCTYPE svg PUBLIC "-//W3C//DTD SVG 20010904//EN"
 "http://www.w3.org/TR/2001/REC-SVG-20010904/DTD/svg10.dtd">
<svg version="1.0" xmlns="http://www.w3.org/2000/svg"
 width="500.000000pt" height="500.000000pt" viewBox="0 0 500.000000 500.000000"
 preserveAspectRatio="xMidYMid meet">

<rect width="100%" height="100%" rx="75" ry="75" fill="lightblue" />
<g transform="translate(0.000000,500.000000) scale(0.100000,-0.100000)"
fill="#000000" stroke="none">
<path d="M1866 3600 c-154 -25 -329 -94 -464 -184 -83 -55 -191 -159 -261
-251 -73 -96 -156 -269 -188 -390 -23 -89 -26 -119 -26 -270 -1 -152 2 -180
25 -266 53 -194 141 -356 268 -493 134 -143 331 -260 525 -313 91 -24 116 -27
280 -27 195 0 264 11 412 70 357 141 625 480 684 864 18 117 6 325 -24 442
-50 190 -146 357 -287 499 -206 207 -459 317 -750 324 -74 2 -162 0 -194 -5z
m329 -455 c111 -28 202 -82 295 -175 129 -128 187 -255 197 -430 20 -363 -255
-674 -615 -697 -322 -20 -605 185 -689 498 -22 85 -22 242 1 329 69 258 287
450 561 493 49 8 186 -2 250 -18z"/>
<path d="M3480 2500 l0 -1110 220 0 220 0 0 1110 0 1110 -220 0 -220 0 0
-1110z"/>
</g>
</svg>
