<?xml version="1.0" standalone="no"?>
<!DOCTYPE svg PUBLIC "-//W3C//DTD SVG 20010904//EN"
 "http://www.w3.org/TR/2001/REC-SVG-20010904/DTD/svg10.dtd">
<svg version="1.0" xmlns="http://www.w3.org/2000/svg"
 width="48.000000pt" height="48.000000pt" viewBox="0 0 48.000000 48.000000"
 preserveAspectRatio="xMidYMid meet">

<g transform="translate(0.000000,48.000000) scale(0.100000,-0.100000)"
fill="#000000" stroke="none">
<path d="M40 390 l0 -70 51 0 c60 0 65 23 5 28 -37 3 -37 3 -34 45 2 34 7 43
24 45 15 2 23 -3 27 -17 4 -18 13 -21 56 -21 44 0 51 3 51 20 0 14 7 20 21 20
12 0 23 -8 26 -20 4 -16 14 -20 53 -20 40 0 49 3 53 21 4 13 12 20 24 17 13
-2 19 -14 21 -45 l3 -42 -38 -3 c-54 -4 -47 -22 10 -26 l47 -3 0 70 0 71 -46
0 c-37 0 -47 -4 -51 -20 -3 -11 -14 -20 -25 -20 -11 0 -22 9 -25 20 -4 17 -14
20 -54 20 -42 0 -49 -3 -49 -20 0 -15 -7 -20 -25 -20 -18 0 -25 5 -25 20 0 17
-7 20 -50 20 l-50 0 0 -70z"/>
<path d="M40 184 c0 -103 1 -106 29 -135 l29 -29 140 0 c136 0 141 1 171 26
l31 26 0 109 0 109 -200 0 -200 0 0 -106z m380 6 c0 -43 -5 -91 -12 -105 -16
-36 -66 -48 -191 -43 -137 4 -148 12 -155 122 -2 41 -2 82 1 90 5 14 32 16
182 16 l175 0 0 -80z"/>
<path d="M212 208 c-25 -12 -35 -41 -30 -84 3 -28 5 -29 61 -32 l57 -3 0 49
c0 28 -6 54 -12 60 -22 17 -52 21 -76 10z m56 -30 c7 -7 12 -22 12 -35 0 -20
-5 -23 -40 -23 -43 0 -50 13 -30 51 12 21 40 25 58 7z"/>
</g>
</svg>
