<?xml version="1.0" encoding="UTF-8"?>
<svg version="1.1" xmlns="http://www.w3.org/2000/svg" width="512" height="512">
<path d="M0 0 C10.55639513 9.65156127 20.38630936 19.58709814 28.91259766 31.09326172 C30.1502098 32.76221322 31.40803819 34.41427553 32.66796875 36.06640625 C49.10714212 57.97333487 61.0719741 83.40397772 68.1875 109.8125 C68.41276367 110.64507324 68.63802734 111.47764648 68.87011719 112.33544922 C84.34649958 171.07284628 75.97887244 234.99623373 45.75 287.6875 C35.8277185 304.58200858 23.64927095 319.61197333 10.1875 333.8125 C9.47787109 334.56515137 9.47787109 334.56515137 8.75390625 335.33300781 C1.67194165 342.79402065 -5.83548827 349.36267481 -14.07861328 355.51416016 C-15.7099672 356.73572311 -17.32249123 357.98231799 -18.93359375 359.23046875 C-66.9975219 395.29312231 -129.12680743 408.57523876 -188.13671875 400.8515625 C-246.08017812 392.36297649 -301.84256006 361.40056673 -337.24609375 314.26953125 C-337.88973877 313.40062256 -337.88973877 313.40062256 -338.54638672 312.51416016 C-339.7517921 310.8940916 -340.98652748 309.29596855 -342.22265625 307.69921875 C-376.89853654 262.10764265 -391.57981292 200.49626316 -384.56640625 143.93359375 C-376.2598772 84.57287069 -347.32175103 27.5816829 -299.03955078 -9.29150391 C-297.86734231 -10.17203457 -296.69223797 -11.04872435 -295.51416016 -11.92138672 C-293.8940916 -13.1267921 -292.29596855 -14.36152748 -290.69921875 -15.59765625 C-210.05038048 -76.93726546 -91.59450161 -72.37344321 0 0 Z " fill="#F47421" transform="translate(410.8125,84.1875)"/>
<path d="M0 0 C0.75563232 0.11770752 1.51126465 0.23541504 2.28979492 0.35668945 C4.45703125 0.76171875 4.45703125 0.76171875 8 2 C9.41015625 4.43359375 9.41015625 4.43359375 10.0625 7.4375 C13.36827172 19.33542837 19.42401336 26.70476986 30 33 C30.73476563 33.45503906 31.46953125 33.91007812 32.2265625 34.37890625 C40.92840433 38.79132428 53.94199158 38.39855083 63.31640625 36.234375 C66 36 66 36 68.38671875 37.52734375 C90.22773065 60.40663805 105 91.11204476 105 123 C90.48 123 75.96 123 61 123 C60.01 117.06 60.01 117.06 59 111 C55.66531544 96.40662798 48.89624643 83.18019057 39 72 C38.21625 71.0203125 37.4325 70.040625 36.625 69.03125 C26.00065771 56.28203925 8.72918448 48.23306664 -7 44 C-7.80695313 43.77570313 -8.61390625 43.55140625 -9.4453125 43.3203125 C-24.95062151 39.77207564 -40.93623341 41.5760096 -56 46 C-57.08023438 46.30808594 -58.16046875 46.61617187 -59.2734375 46.93359375 C-61.52693746 47.59323169 -63.76387057 48.28474282 -66 49 C-68.35216825 45.01509023 -70.69967835 41.02758479 -73.0390625 37.03515625 C-75.05675971 33.59395943 -77.09634678 30.16687949 -79.1484375 26.74609375 C-80.16169707 25.0392042 -81.17472363 23.3321763 -82.1875 21.625 C-82.68096924 20.81119873 -83.17443848 19.99739746 -83.68286133 19.15893555 C-84.13169678 18.39750244 -84.58053223 17.63606934 -85.04296875 16.8515625 C-85.64661255 15.84343506 -85.64661255 15.84343506 -86.26245117 14.81494141 C-87 13 -87 13 -86 10 C-83.48097798 8.69664047 -81.06451868 7.60158737 -78.4375 6.5625 C-77.6738916 6.25610596 -76.9102832 5.94971191 -76.12353516 5.6340332 C-51.34593397 -4.01815205 -25.88262571 -4.91778363 0 0 Z " fill="#FEFDFC" transform="translate(284,125)"/>
<path d="M0 0 C0.35191406 0.62342285 0.70382813 1.2468457 1.06640625 1.88916016 C7.68311352 13.60876536 14.30311547 25.32597471 21 37 C18.0764202 39.98469994 15.11890814 42.74780443 11.875 45.375 C-3.7475087 59.25299523 -14.84845757 81.37340128 -16.140625 102.2746582 C-16.62015719 114.85158876 -15.9653353 126.0129864 -12 138 C-11.63777344 139.12664062 -11.27554688 140.25328125 -10.90234375 141.4140625 C-5.30077988 157.32630157 4.46122374 170.93024112 17.77734375 181.1875 C20 183 20 183 21 185 C19.93945313 187.33154297 19.93945313 187.33154297 18.28125 190.2421875 C17.37632812 191.84320313 17.37632812 191.84320313 16.453125 193.4765625 C15.48632812 195.15878906 15.48632812 195.15878906 14.5 196.875 C13.88640625 197.9578125 13.2728125 199.040625 12.640625 200.15625 C8.48542564 207.47149593 4.25276003 214.74114803 0 222 C-22.54008873 213.30374141 -39.55815609 186.99209411 -49.15966797 165.89746094 C-51.32904841 160.99902259 -53.29091068 156.07700063 -55 151 C-55.433125 149.7625 -55.86625 148.525 -56.3125 147.25 C-55.86681587 142.61488501 -53.3316672 140.78592144 -50.14453125 137.54296875 C-41.48130078 127.27017634 -40.98519956 113.74445569 -42 101 C-43.66970005 93.28121522 -48.39225267 85.05270928 -54.4375 79.9375 C-56 78 -56 78 -55.8203125 74.44921875 C-55.09763093 69.60425244 -53.3880667 65.344322 -51.4375 60.875 C-51.07962402 60.04532715 -50.72174805 59.2156543 -50.35302734 58.36083984 C-43.68282734 43.20607531 -20.1866397 0 0 0 Z " fill="#FEFDFD" transform="translate(183,145)"/>
<path d="M0 0 C14.52 0 29.04 0 44 0 C44 9.02077151 44 9.02077151 43.30078125 12.62890625 C43.0692334 13.82821777 43.0692334 13.82821777 42.83300781 15.05175781 C42.66124023 15.88030273 42.48947266 16.70884766 42.3125 17.5625 C42.04131348 18.87686035 42.04131348 18.87686035 41.76464844 20.21777344 C36.97648943 42.57611047 26.87376313 62.62767982 12 80 C11.38898438 80.73089844 10.77796875 81.46179688 10.1484375 82.21484375 C9.56320312 82.86582031 8.97796875 83.51679688 8.375 84.1875 C7.86710938 84.75855469 7.35921875 85.32960938 6.8359375 85.91796875 C4.04452926 87.56311786 2.13898574 86.6473254 -1 86 C-15.84064032 84.80598324 -28.12540661 86.07293326 -39.96484375 95.9140625 C-46.62454179 102.73993343 -51.25861983 111.65986997 -53 121 C-54.83169318 121.48539869 -56.66546059 121.96297186 -58.5 122.4375 C-59.5209375 122.70433594 -60.541875 122.97117187 -61.59375 123.24609375 C-70.10670061 125.13026745 -78.57089425 125.21756111 -87.25097656 125.24023438 C-89.4671911 125.24985754 -91.68244283 125.28091344 -93.8984375 125.3125 C-107.02967971 125.41109031 -119.649105 123.74689378 -132 119.0625 C-133.00740234 118.70381836 -133.00740234 118.70381836 -134.03515625 118.33789062 C-138.88275415 116.56791028 -143.41655119 114.36845625 -148 112 C-146.72354987 107.80589444 -145.142596 104.2187809 -142.91796875 100.4453125 C-142.31533203 99.41792969 -141.71269531 98.39054687 -141.09179688 97.33203125 C-140.46337891 96.27371094 -139.83496094 95.21539062 -139.1875 94.125 C-138.26227539 92.54912109 -138.26227539 92.54912109 -137.31835938 90.94140625 C-133.96121905 85.24033267 -130.53671264 79.59137426 -127 74 C-126.40783691 74.18941162 -125.81567383 74.37882324 -125.20556641 74.57397461 C-122.48377343 75.43255797 -119.74459185 76.21723454 -117 77 C-115.77539062 77.35964844 -114.55078125 77.71929687 -113.2890625 78.08984375 C-90.2515284 84.44338266 -66.56952741 81.25328444 -45.484375 70.1484375 C-23.07651607 56.82054036 -8.99911224 38.03528608 -2 13 C-1.34 8.71 -0.68 4.42 0 0 Z " fill="#FEFDFD" transform="translate(345,264)"/>
<path d="M0 0 C8.31669396 -0.50243938 15.54428791 2.04836819 22.2578125 6.953125 C29.27458448 13.37525528 33.08707047 21.14992526 33.51953125 30.6640625 C33.14429183 39.19315303 30.42962074 46.95626439 24.51953125 53.2265625 C17.52333293 59.46395406 9.8811081 62.7120929 0.47265625 62.47265625 C-7.30609667 61.73013893 -14.23477725 58.33582973 -20.10546875 53.2265625 C-27.23773745 44.58554466 -29.20363933 36.36112535 -28.39111328 25.25830078 C-27.43490907 18.45699182 -23.72464386 12.34186915 -18.73046875 7.7265625 C-12.95899764 3.39795916 -7.15509879 0.76993642 0 0 Z " fill="#FEFDFC" transform="translate(97.10546875,224.7734375)"/>
<path d="M0 0 C8.24327358 4.88760469 13.18612535 11.13562402 16.20703125 20.30859375 C17.79073786 30.63923379 15.24994205 39.06538291 9.51953125 47.62109375 C4.37964205 54.06222072 -3.73997752 57.62611182 -11.80078125 58.71484375 C-21.32767525 59.00136688 -28.66013987 56.728015 -35.95703125 50.4453125 C-37.79431076 48.49466893 -39.30842343 46.53747933 -40.79296875 44.30859375 C-41.22480469 43.66535156 -41.65664063 43.02210938 -42.1015625 42.359375 C-46.00580756 35.26688829 -45.69006513 27.13064462 -44.79296875 19.30859375 C-42.18706328 10.43006628 -36.1314705 4.02479794 -28.29296875 -0.62890625 C-19.51325799 -4.67078529 -8.6627473 -4.15179763 0 0 Z " fill="#FEFDFD" transform="translate(348.79296875,92.69140625)"/>
<path d="M0 0 C7.25156785 4.31519354 11.22558454 9.52171336 14.3125 17.3125 C16.19734068 27.4221 15.23848821 36.55442338 9.4921875 45.29296875 C4.79274388 51.11809306 -1.52532447 55.64462796 -9 57 C-19.59396315 57.87244402 -27.40073773 57.10826981 -35.98828125 50.4609375 C-41.77712699 45.22990345 -45.54315271 39.11597651 -46.41015625 31.3046875 C-46.63881571 21.30332169 -45.27322723 14.01579035 -39 6 C-28.27896748 -5.19690081 -13.72201317 -7.56590452 0 0 Z " fill="#FEFDFD" transform="translate(350,365)"/>
</svg>
